<?xml version="1.0" encoding="utf-8"?>
<!-- Generator: Adobe Illustrator 21.0.2, SVG Export Plug-In . SVG Version: 6.00 Build 0)  -->
<svg version="1.1" id="Layer_1" xmlns="http://www.w3.org/2000/svg" xmlns:xlink="http://www.w3.org/1999/xlink" x="0px" y="0px"
	 viewBox="0 0 99.5 98" style="enable-background:new 0 0 99.5 98;" xml:space="preserve">
<style type="text/css">
	.st0{fill:url(#SVGID_1_);}
	.st1{fill:url(#SVGID_2_);}
	.st2{fill:url(#SVGID_3_);}
</style>
<g>
	<linearGradient id="SVGID_1_" gradientUnits="userSpaceOnUse" x1="22.1631" y1="15.8684" x2="76.1833" y2="109.4342">
		<stop  offset="0" style="stop-color:#2251F0"/>
		<stop  offset="1" style="stop-color:#E52EA8"/>
	</linearGradient>
	<path class="st0" d="M98.1,31.5l-46-31c-1-0.7-2.3-0.7-3.3,0L1.4,31c-1.4,0.9-1.8,2.8-0.9,4.1c0.3,0.4,0.6,0.7,1,0.9V41
		c0,1.1,0.9,2,2,2h9v5c0,1.1,0.9,2,2,2h2v30h-2c-1.1,0-2,0.9-2,2v5h-9c-1.1,0-2,0.9-2,2v7c0,1.1,0.9,2,2,2h92c1.1,0,2-0.9,2-2v-7
		c0-1.1-0.9-2-2-2h-9v-5c0-1.1-0.9-2-2-2h-2V50h2c1.1,0,2-0.9,2-2v-5h9c1.1,0,2-0.9,2-2v-4.2c0.6-0.2,1.1-0.6,1.5-1.1
		C99.9,34.3,99.5,32.4,98.1,31.5z M50.4,6.6L88.1,32H11L50.4,6.6z M16.5,84h14v3h-14V84z M66.5,50h2v30h-2c-1.1,0-2,0.9-2,2v5h-30
		v-5c0-1.1-0.9-2-2-2h-2V50h2c1.1,0,2-0.9,2-2v-5h30v5C64.5,49.1,65.3,50,66.5,50z M82.5,84v3h-14v-3H82.5z M74.5,80V50h2v30H74.5z
		 M30.5,46h-14v-3h14V46z M24.5,50v30h-2V50H24.5z M84.5,91h9v3h-88v-3h9h18h34H84.5z M82.5,46h-14v-3h14V46z M93.5,39h-9h-18h-34
		h-18h-9v-3h88V39z"/>
	<linearGradient id="SVGID_2_" gradientUnits="userSpaceOnUse" x1="47.702" y1="15.6037" x2="52.201" y2="23.3963">
		<stop  offset="0" style="stop-color:#2251F0"/>
		<stop  offset="1" style="stop-color:#E52EA8"/>
	</linearGradient>
	<path class="st1" d="M50,15c-2.5,0-4.5,2-4.5,4.5s2,4.5,4.5,4.5c2.5,0,4.5-2,4.5-4.5S52.4,15,50,15z"/>
	<linearGradient id="SVGID_3_" gradientUnits="userSpaceOnUse" x1="44.8471" y1="54.3603" x2="55.0024" y2="71.9497">
		<stop  offset="0" style="stop-color:#2251F0"/>
		<stop  offset="1" style="stop-color:#E52EA8"/>
	</linearGradient>
	<path class="st2" d="M51.9,61.1l-1.3-0.4c-0.5-0.2-0.8-0.4-1.1-0.6c-0.3-0.3-0.4-0.6-0.4-0.8c0-0.3,0.2-0.6,0.5-0.9
		c0.4-0.3,0.8-0.4,1.4-0.4c0.9,0,1.9,0.4,2.8,1.1l1.7-3.2c-1.1-0.7-2.5-1.1-4.1-1.3v-2.7h-2.1v2.7c-0.8,0.1-1.4,0.3-2,0.6
		s-1,0.7-1.4,1.2c-0.4,0.5-0.7,1-0.8,1.6s-0.3,1.2-0.3,1.9c0,0.6,0.1,1.2,0.2,1.6c0.2,0.5,0.4,0.9,0.8,1.3s0.8,0.7,1.3,1
		c0.5,0.3,1.2,0.5,1.9,0.8l1.3,0.4c1,0.3,1.5,0.8,1.5,1.5c0,0.5-0.2,0.9-0.6,1.2c-0.4,0.3-0.9,0.4-1.4,0.4c-1.3,0-2.7-0.6-4.1-1.9
		l-1.8,3.4c0.3,0.3,0.6,0.5,1.1,0.8c0.4,0.2,0.9,0.5,1.4,0.6c0.5,0.2,1,0.3,1.5,0.4s1,0.2,1.5,0.2v2.7h2.1v-2.8
		c0.9-0.3,1.6-0.6,2.2-0.9c0.6-0.3,1.1-0.7,1.5-1.1c0.4-0.4,0.6-0.9,0.8-1.5c0.2-0.6,0.2-1.2,0.2-1.9c0-1.2-0.3-2.1-1-2.9
		C54.4,62.3,53.4,61.6,51.9,61.1z"/>
</g>
</svg>
