<?xml version="1.0" encoding="utf-8"?>
<!-- Generator: Adobe Illustrator 21.0.2, SVG Export Plug-In . SVG Version: 6.00 Build 0)  -->
<svg version="1.1" id="Layer_1" xmlns="http://www.w3.org/2000/svg" xmlns:xlink="http://www.w3.org/1999/xlink" x="0px" y="0px"
	 viewBox="0 0 99.4 99" style="enable-background:new 0 0 99.4 99;" xml:space="preserve">
<style type="text/css">
	.st0{fill:url(#SVGID_1_);}
</style>
<linearGradient id="SVGID_1_" gradientUnits="userSpaceOnUse" x1="16.3904" y1="9.9837" x2="72.6618" y2="107.4488">
	<stop  offset="0" style="stop-color:#2251F0"/>
	<stop  offset="1" style="stop-color:#E52EA8"/>
</linearGradient>
<path class="st0" d="M98.9,56.1c-0.5-1-2.1-3.9-3.7-7c-1.6-2.9-3.2-6-3.7-6.9l-0.2-0.4c-0.9-1.9-2.4-4.8-6-4.8h-0.1l-4.3-8.1v-8.6
	c0-1.5-1.2-2.8-2.8-2.8H56.6c-1.5,0-2.8,1.2-2.8,2.8v8.4l-0.3,0.5c-0.1-0.1-0.1-0.2-0.2-0.3c-0.6-0.9-1.3-1.7-1.9-2.4
	c-1.4-1.5-2.6-2.8-3.2-6.7c-0.4-3-0.7-6-0.8-7.6l1.1-0.9c0.6-0.5,1-1.3,1-2.1V2.8c0-1.5-1.2-2.8-2.8-2.8H34.4
	c-1.5,0-2.8,1.2-2.8,2.8v6.5c0,0.7,0.3,1.4,0.8,2l0.9,0.9c0.2,0-0.7,7.4-0.7,8.3c0,2.7-1.7,6.4-4,8.7c-2.1,2.1-2.6,5.5-2.7,8H14.1
	c-3.6,0-5,2.9-6,4.8l-0.2,0.4c-0.4,0.9-2.1,3.9-3.7,6.9c-1.7,3.1-3.3,6.1-3.7,7c-0.7,1.5-0.6,3.1,0.2,4.5c1,1.6,3,2.8,5,3.1v27.8
	c0,4.1,3.3,7.4,7.4,7.4h72.2c4.1,0,7.4-3.3,7.4-7.4V63.8c2.3,0,4.8-1.3,5.9-3.2C99.5,59.2,99.6,57.6,98.9,56.1z M77,33.5l1.9,3.5
	h-3.8L77,33.5z M58.7,31.5h10.8c1,0,1.9-0.8,1.9-1.9s-0.8-1.9-1.9-1.9H59.4v-4.6h15.9v5.7L70.8,37h-3.1c-1.3,0-6.1,0-7.4,0h-4.6
	C55.7,36.7,58.7,31.5,58.7,31.5z M38.9,12h2.9c0.1,1.5,0.4,5.1,0.9,8.7c0.1,0.5,0.2,1,0.3,1.5H38C38.1,21.6,38.7,13.4,38.9,12z
	 M36.3,4.6h8.3V8v0.4h-7.2h-1.1V4.6z M32.5,33c1.9-1.9,3.5-4.5,4.5-7.1h7.2c0.9,2.1,2.1,3.4,3.2,4.5c0.5,0.6,1,1.1,1.4,1.7
	c0.6,0.9,1,1.9,1.3,2.7L48.6,37H31.5C31.5,35.4,31.8,33.7,32.5,33z M9.1,51.7c1.7-3.1,3.3-6.1,3.7-7l0.2-0.5c0.3-0.6,0.8-1.6,1-1.7
	h38.9c0,0,0,0,0,0c0,0,0,0,0,0h7.4c0.2,0,0.5,0.1,0.7,0.2c0,0.1,0,0.2,0,0.4c-0.7,1.3-2,3.7-3.2,6c-1.7,3.1-3.3,6.1-3.7,7l-0.2,0.5
	c-0.3,0.6-0.8,1.6-0.9,1.7l-46.3,0c-0.3,0-0.6-0.1-0.9-0.3C6.4,56.7,7.8,54.2,9.1,51.7z M11.3,91.6V63.8h41.6c3.6,0,5-2.9,6-4.8
	l0.2-0.4c0.3-0.7,1.4-2.7,2.6-4.9v39.7H13.1C12.1,93.4,11.3,92.6,11.3,91.6z M87.2,91.6c0,1-0.8,1.9-1.9,1.9H67.3V55.4
	c0.8,1.5,1.4,2.7,1.7,3.2l0.2,0.4c0.9,1.9,2.4,4.8,6,4.8h12V91.6z M92.7,58.3l-2.7,0c0,0-0.1,0-0.1,0c0,0-0.1,0-0.1,0l-14.6,0
	c-0.3-0.2-0.7-1.1-1-1.7l-0.2-0.5c-0.5-1-2.1-3.9-3.7-7c-1.1-2-2.2-4.1-2.9-5.5v-1c0.2-0.1,0.3-0.1,0.5-0.1h17.6
	c0.3,0.2,0.7,1.1,1,1.7l0.2,0.5c0.5,1,2.1,3.9,3.7,7c1.3,2.4,2.7,5,3.3,6.3C93.4,58.1,93,58.3,92.7,58.3z M19.2,88h10
	c1.1,0,2-0.9,2-2s-0.9-2-2-2h-10c-1.1,0-2,0.9-2,2S18.1,88,19.2,88z"/>
</svg>
