<?xml version="1.0" encoding="utf-8"?>
<!-- Generator: Adobe Illustrator 21.0.2, SVG Export Plug-In . SVG Version: 6.00 Build 0)  -->
<svg version="1.1" id="Layer_1" xmlns="http://www.w3.org/2000/svg" xmlns:xlink="http://www.w3.org/1999/xlink" x="0px" y="0px"
	 viewBox="0 0 94 95" style="enable-background:new 0 0 94 95;" xml:space="preserve">
<style type="text/css">
	.st0{fill:url(#SVGID_1_);}
	.st1{fill:url(#SVGID_2_);}
	.st2{fill:url(#SVGID_3_);}
	.st3{fill:url(#SVGID_4_);}
	.st4{fill:url(#SVGID_5_);}
	.st5{fill:url(#SVGID_6_);}
	.st6{fill:url(#SVGID_7_);}
	.st7{fill:url(#SVGID_8_);}
</style>
<g>
	<linearGradient id="SVGID_1_" gradientUnits="userSpaceOnUse" x1="30.8857" y1="21.3343" x2="67.0198" y2="83.9203">
		<stop  offset="0" style="stop-color:#2251F0"/>
		<stop  offset="1" style="stop-color:#E52EA8"/>
	</linearGradient>
	<path class="st0" d="M75.7,35.8H30c-0.8-1.4-1.8-3-2.7-4c-2.8-2.8-8.5-2.4-10.2-2.2c-1.7,0.2-3,1.7-2.8,3.5s1.8,3,3.5,2.8
		c2-0.2,4.6,0,5.1,0.4c0.5,0.5,1.5,2.2,2.3,3.8l1.7,22.8c-2.7,1.1-4.5,3.8-4.5,7c0,1.9,0.7,3.7,1.9,5.1c0.6,0.7,1.6,1.5,3,2
		c-0.3,0.7-0.5,1.4-0.5,2.2c0,2.9,2.4,5.3,5.3,5.3s5.3-2.4,5.3-5.3c0-0.6-0.1-1.3-0.3-1.8h22.8c-0.2,0.6-0.3,1.2-0.3,1.8
		c0,2.9,2.4,5.3,5.3,5.3c2.9,0,5.3-2.4,5.3-5.3c0-1.8-0.9-3.3-2.2-4.3c0-0.2,0.1-0.4,0.1-0.7c0-1.7-1.4-3.1-3.1-3.1H30
		c-0.4,0-0.8-0.1-1.1-0.3c-0.2-0.2-0.3-0.5-0.3-0.9c0-0.1,0-1.3,0.9-1.3h35.2c7.1,0,9.8-2.2,11.1-9.1c1-5.3,2.8-19.5,2.9-20.1
		c0.1-0.9-0.2-1.8-0.8-2.5C77.4,36.2,76.6,35.8,75.7,35.8z M32.1,80.2c-0.6,0-1.1-0.5-1.1-1.1s0.5-1.1,1.1-1.1
		c0.6,0,1.1,0.5,1.1,1.1S32.7,80.2,32.1,80.2z M64.8,80.2c-0.6,0-1.1-0.5-1.1-1.1s0.5-1.1,1.1-1.1c0.6,0,1.1,0.5,1.1,1.1
		S65.4,80.2,64.8,80.2z M69.8,58.3c-0.7,3.9-0.8,4-5,4H33.1l-1.5-20.2h40.5C71.5,46.7,70.4,54.7,69.8,58.3z"/>
	<linearGradient id="SVGID_2_" gradientUnits="userSpaceOnUse" x1="47.6461" y1="45.9154" x2="55.0052" y2="58.6617">
		<stop  offset="0" style="stop-color:#2251F0"/>
		<stop  offset="1" style="stop-color:#E52EA8"/>
	</linearGradient>
	<path class="st1" d="M51.3,60.5c1.2,0,2.1-0.9,2.1-2.1V46.2c0-1.2-0.9-2.1-2.1-2.1s-2.1,0.9-2.1,2.1v12.2
		C49.2,59.5,50.2,60.5,51.3,60.5z"/>
	<linearGradient id="SVGID_3_" gradientUnits="userSpaceOnUse" x1="56.6137" y1="45.9154" x2="63.9727" y2="58.6617">
		<stop  offset="0" style="stop-color:#2251F0"/>
		<stop  offset="1" style="stop-color:#E52EA8"/>
	</linearGradient>
	<path class="st2" d="M60.3,60.5c1.2,0,2.1-0.9,2.1-2.1V46.2c0-1.2-0.9-2.1-2.1-2.1c-1.2,0-2.1,0.9-2.1,2.1v12.2
		C58.2,59.5,59.1,60.5,60.3,60.5z"/>
	<linearGradient id="SVGID_4_" gradientUnits="userSpaceOnUse" x1="38.6793" y1="45.9153" x2="46.0384" y2="58.6616">
		<stop  offset="0" style="stop-color:#2251F0"/>
		<stop  offset="1" style="stop-color:#E52EA8"/>
	</linearGradient>
	<path class="st3" d="M42.4,60.5c1.2,0,2.1-0.9,2.1-2.1V46.2c0-1.2-0.9-2.1-2.1-2.1c-1.2,0-2.1,0.9-2.1,2.1v12.2
		C40.3,59.5,41.2,60.5,42.4,60.5z"/>
	<linearGradient id="SVGID_5_" gradientUnits="userSpaceOnUse" x1="16.413" y1="-5.501" x2="77.5872" y2="100.4557">
		<stop  offset="0" style="stop-color:#2251F0"/>
		<stop  offset="1" style="stop-color:#E52EA8"/>
	</linearGradient>
	<path class="st4" d="M84.6,0H9.4C4.2,0,0,4.2,0,9.4v76.2C0,90.7,4.2,95,9.4,95h75.2c5.2,0,9.4-4.2,9.4-9.4V9.4
		C94,4.2,89.8,0,84.6,0z M9.4,4.2h75.2c2.9,0,5.2,2.3,5.2,5.2v7.8H4.2V9.4C4.2,6.5,6.5,4.2,9.4,4.2z M84.6,90.8H9.4
		c-2.9,0-5.2-2.3-5.2-5.2V21.4h85.6v64.2C89.8,88.4,87.5,90.8,84.6,90.8z"/>
	<linearGradient id="SVGID_6_" gradientUnits="userSpaceOnUse" x1="82.5109" y1="8.5902" x2="84.6002" y2="12.2089">
		<stop  offset="0" style="stop-color:#2251F0"/>
		<stop  offset="1" style="stop-color:#E52EA8"/>
	</linearGradient>
	<circle class="st5" cx="83.6" cy="10.4" r="2.1"/>
	<linearGradient id="SVGID_7_" gradientUnits="userSpaceOnUse" x1="74.1554" y1="8.5902" x2="76.2446" y2="12.2089">
		<stop  offset="0" style="stop-color:#2251F0"/>
		<stop  offset="1" style="stop-color:#E52EA8"/>
	</linearGradient>
	<circle class="st6" cx="75.2" cy="10.4" r="2.1"/>
	<linearGradient id="SVGID_8_" gradientUnits="userSpaceOnUse" x1="65.7998" y1="8.5902" x2="67.8891" y2="12.2089">
		<stop  offset="0" style="stop-color:#2251F0"/>
		<stop  offset="1" style="stop-color:#E52EA8"/>
	</linearGradient>
	<circle class="st7" cx="66.8" cy="10.4" r="2.1"/>
</g>
</svg>
