<?xml version="1.0" encoding="utf-8"?>
<!-- Generator: Adobe Illustrator 21.0.2, SVG Export Plug-In . SVG Version: 6.00 Build 0)  -->
<svg version="1.1" id="Layer_1" xmlns="http://www.w3.org/2000/svg" xmlns:xlink="http://www.w3.org/1999/xlink" x="0px" y="0px"
	 viewBox="0 0 65.9 102.9" style="enable-background:new 0 0 65.9 102.9;" xml:space="preserve">
<style type="text/css">
	.st0{fill:url(#SVGID_1_);}
	.st1{fill:url(#SVGID_2_);}
	.st2{fill:url(#SVGID_3_);}
	.st3{fill:url(#SVGID_4_);}
	.st4{fill:url(#SVGID_5_);}
	.st5{fill:url(#SVGID_6_);}
</style>
<g>
	<linearGradient id="SVGID_1_" gradientUnits="userSpaceOnUse" x1="24.1461" y1="5.9075" x2="52.4952" y2="55.0094">
		<stop  offset="0" style="stop-color:#2251F0"/>
		<stop  offset="1" style="stop-color:#E52EA8"/>
	</linearGradient>
	<path class="st0" d="M35.9,63c0.2,0,0.3,0,0.5,0c0.3,0,0.6-0.1,0.9-0.2C37.9,62.7,51.7,58,58,47.5c3.5-5.8,3.5-14,3.5-21.2V15
		c0-1.3-0.9-2.5-2.1-2.9c-0.1,0-12.4-3.9-19.8-11.3c-1.2-1.2-3.1-1.2-4.2,0c-6.9,6.9-21.6,11.2-21.7,11.2c-1.3,0.4-2.2,1.5-2.2,2.9
		v15.8c0,5.3,0,13.4,8.9,22.3C28.7,61.6,35.2,62.8,35.9,63z M17.4,17.2c4.2-1.4,13.5-4.9,20-10.1c6.3,5.4,14.3,8.7,18.1,10.1v9.2
		c0,6.4,0,13.8-2.6,18.1c-4.3,7.2-13.8,11.3-16.6,12.4c-1.6-0.5-6.1-2.4-11.7-8c-7.1-7.1-7.1-13.2-7.1-18.1V17.2z"/>
	<linearGradient id="SVGID_2_" gradientUnits="userSpaceOnUse" x1="27.0128" y1="63.4737" x2="42.7317" y2="90.6997">
		<stop  offset="0" style="stop-color:#2251F0"/>
		<stop  offset="1" style="stop-color:#E52EA8"/>
	</linearGradient>
	<path class="st1" d="M64.7,60c-0.9-1.4-2.2-2.3-3.9-2.5c-5.4-0.7-14.1,6.7-18,10.3c-0.2-0.1-0.5-0.3-0.7-0.4
		c-5.8-3-17.2-2.5-22.6,1c-4.2,2.7-7.1,6.2-8.7,8.3C9.9,76.2,9,76,8,75.9c-2-0.1-3.9,0.5-5.4,1.8c-3.1,2.7-3.4,7.5-0.7,10.6l10.5,12
		c1.3,1.5,3.1,2.4,5.1,2.5c0.2,0,0.3,0,0.5,0c1.8,0,3.5-0.6,4.9-1.9c2.5-2.2,3.2-5.6,2-8.5c0.1-0.1,0.1-0.1,0.2-0.2
		c0-0.1,1.2-1.8,4.1-2.5c1.1-0.3,2.7,0,4.4,0.3c4.7,0.8,11.1,2,18-6.2c2.1-2.4,4.1-4.6,5.9-6.5C63.5,70.9,68.3,65.8,64.7,60z
		 M19,96.6c-0.4,0.4-0.9,0.4-1.1,0.4c-0.2,0-0.7-0.1-1-0.5l0,0l-10.5-12c-0.5-0.6-0.5-1.6,0.1-2.1c0.4-0.3,0.7-0.4,1-0.4
		c0,0,0.1,0,0.1,0c0.2,0,0.7,0.1,1,0.5l10.5,12C19.7,95.1,19.6,96,19,96.6z M53.2,73.3c-1.8,2-3.9,4.2-6.1,6.8
		c-4.7,5.6-8.2,4.9-12.4,4.2c-2.2-0.4-4.6-0.8-7-0.2c-3.3,0.9-5.4,2.5-6.5,3.7l-6.1-7c1.1-1.6,3.7-4.9,7.6-7.4
		c3.6-2.4,12.6-2.7,16.6-0.7c0.4,0.2,1.2,0.7,1.3,1.2c0,0.1,0,0.2-0.2,0.4c-1.7,1.7-8.1,2.1-11.9,1.8c-1.7-0.1-3.1,1.1-3.2,2.8
		c-0.1,1.7,1.1,3.1,2.8,3.2c2,0.1,12.2,0.6,16.5-3.5c1.4-1.3,2.1-3.1,2-4.9c0-0.3-0.1-0.7-0.1-1.1c5.2-4.9,11.2-9,13.3-9.1
		C60.4,65.3,57.8,68.3,53.2,73.3z"/>
	<linearGradient id="SVGID_3_" gradientUnits="userSpaceOnUse" x1="23.5223" y1="29.6182" x2="26.2726" y2="34.3818">
		<stop  offset="0" style="stop-color:#2251F0"/>
		<stop  offset="1" style="stop-color:#E52EA8"/>
	</linearGradient>
	<path class="st2" d="M28.4,32c0-1.1-0.9-2-2-2h-3c-1.1,0-2,0.9-2,2s0.9,2,2,2h3C27.5,34,28.4,33.1,28.4,32z"/>
	<linearGradient id="SVGID_4_" gradientUnits="userSpaceOnUse" x1="47.5223" y1="29.6182" x2="50.2726" y2="34.3818">
		<stop  offset="0" style="stop-color:#2251F0"/>
		<stop  offset="1" style="stop-color:#E52EA8"/>
	</linearGradient>
	<path class="st3" d="M47.4,34h3c1.1,0,2-0.9,2-2s-0.9-2-2-2h-3c-1.1,0-2,0.9-2,2S46.3,34,47.4,34z"/>
	<linearGradient id="SVGID_5_" gradientUnits="userSpaceOnUse" x1="34.7478" y1="16.6427" x2="38.0471" y2="22.3573">
		<stop  offset="0" style="stop-color:#2251F0"/>
		<stop  offset="1" style="stop-color:#E52EA8"/>
	</linearGradient>
	<path class="st4" d="M36.4,23c1.1,0,2-0.9,2-2v-3c0-1.1-0.9-2-2-2s-2,0.9-2,2v3C34.4,22.1,35.3,23,36.4,23z"/>
	<linearGradient id="SVGID_6_" gradientUnits="userSpaceOnUse" x1="34.7478" y1="42.6427" x2="38.0471" y2="48.3573">
		<stop  offset="0" style="stop-color:#2251F0"/>
		<stop  offset="1" style="stop-color:#E52EA8"/>
	</linearGradient>
	<path class="st5" d="M36.4,49c1.1,0,2-0.9,2-2v-3c0-1.1-0.9-2-2-2s-2,0.9-2,2v3C34.4,48.1,35.3,49,36.4,49z"/>
</g>
</svg>
