<?xml version="1.0" encoding="utf-8"?>
<!-- Generator: Adobe Illustrator 21.0.2, SVG Export Plug-In . SVG Version: 6.00 Build 0)  -->
<svg version="1.1" id="Layer_1" xmlns="http://www.w3.org/2000/svg" xmlns:xlink="http://www.w3.org/1999/xlink" x="0px" y="0px"
	 viewBox="0 0 88 92.7" style="enable-background:new 0 0 88 92.7;" xml:space="preserve">
<style type="text/css">
	.st0{fill:url(#SVGID_1_);}
	.st1{fill:url(#SVGID_2_);}
</style>
<g>
	<linearGradient id="SVGID_1_" gradientUnits="userSpaceOnUse" x1="20.6261" y1="11.0044" x2="68.0471" y2="93.1399">
		<stop  offset="0" style="stop-color:#2251F0"/>
		<stop  offset="1" style="stop-color:#E52EA8"/>
	</linearGradient>
	<path class="st0" d="M77.7,18.7H58V15c0-1-0.8-1.9-1.9-1.9h-7.4l10.6-9.9c0.8-0.7,0.8-1.9,0.1-2.6c-0.7-0.8-1.9-0.8-2.6-0.1
		L44,12.4l-9-8.2c-0.8-0.7-1.9-0.6-2.6,0.1c-0.7,0.8-0.6,1.9,0.1,2.6l6.7,6.1h-7.3c-1,0-1.9,0.8-1.9,1.9v3.7H10.3
		C4.6,18.7,0,23.3,0,29V74c0,5.7,4.6,10.3,10.3,10.3h12.1l-4.2,5.4c-0.6,0.8-0.5,2,0.3,2.6c0.3,0.3,0.7,0.4,1.1,0.4
		c0.6,0,1.1-0.2,1.5-0.7l6-7.7h33.7l6,7.7c0.4,0.5,0.9,0.7,1.5,0.7c0.4,0,0.8-0.1,1.1-0.4c0.8-0.6,1-1.8,0.3-2.6l-4.2-5.4h12.1
		C83.4,84.3,88,79.6,88,74V29C88,23.3,83.4,18.7,77.7,18.7z M82.4,74c0,2.6-2.1,4.7-4.7,4.7H10.3c-2.6,0-4.7-2.1-4.7-4.7V29
		c0-2.6,2.1-4.7,4.7-4.7h67.4c2.6,0,4.7,2.1,4.7,4.7V74z"/>
	<linearGradient id="SVGID_2_" gradientUnits="userSpaceOnUse" x1="38.4773" y1="41.4796" x2="48.571" y2="58.9624">
		<stop  offset="0" style="stop-color:#2251F0"/>
		<stop  offset="1" style="stop-color:#E52EA8"/>
	</linearGradient>
	<path class="st1" d="M39.7,62.6c0.4,0.2,0.8,0.3,1.3,0.3c0.6,0,1.2-0.2,1.6-0.5L54.3,54c0.7-0.5,1.2-1.4,1.2-2.3
		c0-0.9-0.4-1.7-1.2-2.3L42.6,41c-0.9-0.6-2-0.7-2.9-0.2c-0.9,0.5-1.5,1.4-1.5,2.5v16.8C38.2,61.2,38.8,62.1,39.7,62.6z M43.8,48.8
		l4,2.9l-4,2.9V48.8z"/>
</g>
</svg>
