<?xml version="1.0" encoding="utf-8"?>
<!-- Generator: Adobe Illustrator 21.0.2, SVG Export Plug-In . SVG Version: 6.00 Build 0)  -->
<svg version="1.1" id="Layer_1" xmlns="http://www.w3.org/2000/svg" xmlns:xlink="http://www.w3.org/1999/xlink" x="0px" y="0px"
	 viewBox="0 0 86.7 97" style="enable-background:new 0 0 86.7 97;" xml:space="preserve">
<style type="text/css">
	.st0{fill:url(#SVGID_1_);}
	.st1{fill:url(#SVGID_2_);}
	.st2{fill:url(#SVGID_3_);}
	.st3{fill:url(#SVGID_4_);}
</style>
<g>
	<linearGradient id="SVGID_1_" gradientUnits="userSpaceOnUse" x1="26.7952" y1="19.5962" x2="71.5616" y2="97.1339">
		<stop  offset="0" style="stop-color:#2251F0"/>
		<stop  offset="1" style="stop-color:#E52EA8"/>
	</linearGradient>
	<path class="st0" d="M83.4,26.2H61.1l3.3-19.6h14.7c1.8,0,3.3-1.5,3.3-3.3S80.9,0,79.1,0H61.6c-1.6,0-3,1.2-3.2,2.7l-3.9,23.4H34.4
		c-1.8,0-3.3,1.5-3.3,3.3s1.5,3.3,3.3,3.3h5.5l0.2,9.7c-2.9-0.6-6.2-1-10-1c-11.6,0-18.6,3.6-22.3,6.7c-4.7,3.8-7.4,9-7.4,14.2
		c0,2.9,0.9,5.5,2.4,7.6C1,71.2,0,73.2,0,75.3c0,1.9,0.9,3.9,2.6,5.4c-1,1.6-1.5,3.4-1.5,5.3c0,2.3,0.8,4.5,2.3,6.1
		c1.2,1.3,3.4,2.8,7,2.8h16.2l1,1.1c0.6,0.7,1.5,1.1,2.4,1.1c0,0,0,0,0,0c0.9,0,1.8-0.4,2.4-1.1l1-1.1h15.1c0.3,0,0.5,0,0.7,0
		c0.1,0,0.2,0,0.4,0h25.1c1.8,0,3.2-1.4,3.3-3.2L79,32.7h4.4c1.8,0,3.3-1.5,3.3-3.3S85.2,26.2,83.4,26.2z M11.8,53.2
		C14.7,50.8,20.3,48,30,48c9.7,0,15.3,2.8,18.3,5.1c3.2,2.5,5.1,5.8,5.1,8.9c0,3.5-2.2,5.5-5.9,5.5h-36c-3.4,0-4.6-2.7-4.6-5.3
		C6.8,59.1,8.7,55.7,11.8,53.2z M35.6,82.8L30,88.9l-5.5-6.1H35.6z M36.5,76.3H16.3h-5.9H9c-1.8,0-2.5-0.8-2.5-1
		c0,0,0.1-0.2,0.3-0.4c0.3-0.2,1.3-0.8,3.5-0.8h1.1h36h2.2c1.7,0,2.5,0.6,2.5,1.1s-0.8,1.1-2.5,1.1H36.5z M10.4,88.3
		c-0.7,0-1.6-0.1-2.2-0.7c-0.5-0.5-0.6-1.2-0.6-1.6c0-1.2,0.7-3.1,2.8-3.1h5.3l4.9,5.4H10.4z M44.5,82.8h5.1c2.3,0,3.1,1.3,3.1,2.5
		c0,0.4-0.1,1.2-0.8,1.9c-0.7,0.7-1.9,1.1-3.3,1.1h-9L44.5,82.8z M71.5,88.3H58.7c0.3-0.9,0.5-1.9,0.5-2.9c0-2-0.7-4.1-2.1-5.8
		c1-1.3,1.5-2.8,1.5-4.4c0-1.7-0.6-3.4-1.9-4.8c2-2.1,3.2-5,3.2-8.4c0-5.2-2.8-10.3-7.6-14.1c-1.4-1.1-3.3-2.3-5.7-3.4l-0.2-11.9
		h10.9c0,0,0,0,0,0c0,0,0,0,0,0h15.2L71.5,88.3z"/>
	<linearGradient id="SVGID_2_" gradientUnits="userSpaceOnUse" x1="18.0176" y1="56.9659" x2="20.1977" y2="60.742">
		<stop  offset="0" style="stop-color:#2251F0"/>
		<stop  offset="1" style="stop-color:#E52EA8"/>
	</linearGradient>
	<circle class="st1" cx="19.1" cy="58.9" r="2.2"/>
	<linearGradient id="SVGID_3_" gradientUnits="userSpaceOnUse" x1="28.9164" y1="52.6063" x2="31.0966" y2="56.3824">
		<stop  offset="0" style="stop-color:#2251F0"/>
		<stop  offset="1" style="stop-color:#E52EA8"/>
	</linearGradient>
	<circle class="st2" cx="30" cy="54.5" r="2.2"/>
	<linearGradient id="SVGID_4_" gradientUnits="userSpaceOnUse" x1="39.8153" y1="56.9659" x2="41.9954" y2="60.742">
		<stop  offset="0" style="stop-color:#2251F0"/>
		<stop  offset="1" style="stop-color:#E52EA8"/>
	</linearGradient>
	<circle class="st3" cx="40.9" cy="58.9" r="2.2"/>
</g>
</svg>
